<svg width="32" height="32" viewBox="0 0 32 32" fill="none" xmlns="http://www.w3.org/2000/svg">
<path d="M16 6.66671C16 5.93033 16.597 5.33337 17.3333 5.33337H25.8426C26.8338 5.33337 27.4785 6.37646 27.0352 7.26299L24.2981 12.7371C24.1105 13.1125 24.1105 13.5543 24.2981 13.9297L27.0352 19.4038C27.4785 20.2903 26.8338 21.3334 25.8426 21.3334H18.6667C17.1939 21.3334 16 20.1395 16 18.6667V6.66671Z" fill="#FFD89F"/>
<path d="M8 2.66663H16C17.4728 2.66663 18.6667 3.86053 18.6667 5.33329V17.3333C18.6667 18.0697 18.0697 18.6666 17.3333 18.6666H8V2.66663Z" fill="#FEAB21"/>
<path d="M5.33337 3.99996C5.33337 3.26358 5.93033 2.66663 6.66671 2.66663H8.00004V28C8.00004 28.7363 7.40309 29.3333 6.66671 29.3333V29.3333C5.93033 29.3333 5.33337 28.7363 5.33337 28V3.99996Z" fill="#FFD89F"/>
</svg>
