<svg width="32" height="32" viewBox="0 0 32 32" fill="none" xmlns="http://www.w3.org/2000/svg">
<path d="M13.3333 24.5011V18.6666H8L9.03175 24.8571C9.20578 25.9013 10.1092 26.6666 11.1678 26.6666C12.3638 26.6666 13.3333 25.6971 13.3333 24.5011Z" fill="#FFD89F"/>
<path d="M4 14.666C4 12.4569 5.79086 10.666 8 10.666H12L14.6667 10.6665L22.9834 5.80074C25.2056 4.50065 28 6.1033 28 8.67785V20.6628C28 23.2385 25.2034 24.841 22.9813 23.5387L14.6667 18.666H12H8C5.79086 18.666 4 16.8751 4 14.666Z" fill="#FEAB21"/>
<path d="M24 14.3704C24 13.0613 25.0613 12 26.3704 12H26.6667C28.1394 12 29.3333 13.1939 29.3333 14.6667C29.3333 16.1394 28.1394 17.3333 26.6667 17.3333H26.3704C25.0613 17.3333 24 16.2721 24 14.963V14.3704Z" fill="#FEAB21"/>
<path d="M14.6666 10.6666L22.9834 5.80087C25.2055 4.50077 28 6.10342 28 8.67797V20.6629C28 23.2386 25.2034 24.8411 22.9813 23.5388L14.6666 18.6661V10.6666Z" fill="#FFD89F"/>
</svg>
